{"title":"Good Burger [1997]","uid":11905643,"size":790006332,"categoryP":"video","categoryS":"movies","magnet":"?xt=urn:btih:6e97d1ef34f91e8a1e0b25b0e94723241954c87d&amp;dn=Good+Burger+%5B1997%5D&amp;tr=udp%3A%2F%2Ftracker.openbittorrent.com%3A80&amp;tr=udp%3A%2F%2Fopen.demonii.com%3A1337&amp;tr=udp%3A%2F%2Ftracker.coppersurfer.tk%3A6969&amp;tr=udp%3A%2F%2Fexodus.desync.com%3A6969","seeders":1,"leechers":0,"uploader":"YaMoonSun","files":1,"time":1431387586,"description":"Format                                   : MPEG-4\nFormat profile                           : Base Media / Version 2\nCodec ID                                 : mp42\nFile size                                : 753 MiB\nDuration                                 : 1h 35mn\nOverall bit rate mode                    : Variable\nOverall bit rate                         : 1 105 Kbps\n\nVideo\nID                                       : 1\nFormat                                   : AVC\nFormat/Info                              : Advanced Video Codec\nFormat profile                           : Main@L3\nFormat settings, CABAC                   : Yes\nFormat settings, ReFrames                : 4 frames\nCodec ID                                 : avc1\nCodec ID/Info                            : Advanced Video Coding\nDuration                                 : 1h 35mn\nBit rate                                 : 937 Kbps\nWidth                                    : 720 pixels\nHeight                                   : 480 pixels\nDisplay aspect ratio                     : 16:9\nOriginal display aspect ratio            : 16:9\nFrame rate mode                          : Variable\nFrame rate                               : 23.976 fps\nMinimum frame rate                       : 19.978 fps\nMaximum frame rate                       : 731.707 fps\nStandard                                 : NTSC\nColor space                              : YUV\nChroma subsampling                       : 4:2:0\nBit depth                                : 8 bits\nScan type                                : Progressive\nBits/(Pixel*Frame)                       : 0.113\nStream size                              : 639 MiB (85%)\nWriting library                          : x264 core 142 r2479 dd79a61\nColor range                              : Limited\nColor primaries                          : BT.601 NTSC\nTransfer characteristics                 : BT.709\nMatrix coefficients                      : BT.601\n\nAudio\nID                                       : 2\nFormat                                   : AAC\nFormat/Info                              : Advanced Audio Codec\nFormat profile                           : LC\nCodec ID                                 : 40\nDuration                                 : 1h 35mn\nBit rate mode                            : Variable\nBit rate                                 : 160 Kbps\nChannel(s)                               : 2 channels\nChannel(s)_Original                      : 6 channels\nChannel positions                        : Front: L C R, Side: L R, LFE\nSampling rate                            : 48.0 KHz\nCompression mode                         : Lossy\nStream size                              : 109 MiB (14%)\nTitle                                    : Surround / Surround\nLanguage                                 : English\n\nMenu\nID                                       : 3\nCodec ID                                 : text\nDuration                                 : 1h 35mn\nLanguage                                 : English\n00:00:00.000                             : Chapter 1\n00:05:59.175                             : Chapter 2\n00:08:59.172                             : Chapter 3\n00:12:17.370                             : Chapter 4\n00:16:40.633                             : Chapter 5\n00:19:31.203                             : Chapter 6\n00:24:20.926                             : Chapter 7\n00:30:03.101                             : Chapter 8\n00:33:55.166                             : Chapter 9\n00:37:21.007                             : Chapter 10\n00:39:40.965                             : Chapter 11\n00:45:59.159                             : Chapter 12\n00:55:37.103                             : Chapter 13\n00:59:29.969                             : Chapter 14\n01:02:36.172                             : Chapter 15\n01:05:38.337                             : Chapter 16\n01:08:07.486                             : Chapter 17\n01:13:55.802                             : Chapter 18\n01:19:04.127                             : Chapter 19\n01:24:20.593                             : Chapter 20\nBit rate mode                            : VBR","torrent":{"xt":"urn:btih:6e97d1ef34f91e8a1e0b25b0e94723241954c87d","amp;dn":"Good+Burger+%5B1997%5D","amp;tr":["udp%3A%2F%2Ftracker.openbittorrent.com%3A80","udp%3A%2F%2Fopen.demonii.com%3A1337","udp%3A%2F%2Ftracker.coppersurfer.tk%3A6969","udp%3A%2F%2Fexodus.desync.com%3A6969"],"infoHash":"6e97d1ef34f91e8a1e0b25b0e94723241954c87d","infoHashBuffer":{"type":"Buffer","data":[110,151,209,239,52,249,30,138,30,11,37,176,233,71,35,36,25,84,200,125]},"announce":[],"urlList":[]}}